<svg 
 xmlns="http://www.w3.org/2000/svg"
 xmlns:xlink="http://www.w3.org/1999/xlink"
 width="400px" height="400px">
<path fill-rule="evenodd"  opacity="0.02" fill="rgb(255, 255, 255)"
 d="M398.047,189.528 L329.125,378.888 C324.531,391.508 312.404,399.993 298.948,400.000 C295.245,400.000 291.567,399.347 288.019,398.062 L98.669,329.138 C82.049,323.089 73.448,304.646 79.496,288.026 L82.641,279.395 C83.408,277.286 85.417,275.973 87.552,275.973 C88.139,275.973 88.735,276.072 89.316,276.282 C90.622,276.755 91.665,277.711 92.252,278.972 C92.839,280.231 92.899,281.643 92.422,282.949 L89.277,291.587 C85.198,302.812 91.006,315.270 102.224,319.358 L291.579,388.282 C297.010,390.256 302.890,389.994 308.140,387.546 C313.392,385.096 317.371,380.757 319.342,375.327 L388.265,185.968 C392.351,174.748 386.543,162.292 375.318,158.203 L278.717,123.047 C277.408,122.571 276.364,121.612 275.777,120.351 C275.192,119.091 275.132,117.679 275.611,116.370 C276.586,113.679 279.571,112.281 282.278,113.258 L378.879,148.423 C395.495,154.470 404.094,172.910 398.047,189.528 ZM283.818,197.997 C287.450,188.015 297.028,181.307 307.654,181.307 C310.607,181.307 313.524,181.821 316.318,182.835 C329.456,187.619 336.256,202.199 331.474,215.337 C327.849,225.318 318.274,232.026 307.646,232.026 C304.699,232.026 301.782,231.510 298.975,230.493 C285.838,225.711 279.038,211.134 283.818,197.997 ZM302.534,220.704 C304.138,221.289 305.812,221.581 307.494,221.581 C309.665,221.581 311.850,221.096 313.915,220.134 C317.543,218.443 320.378,215.397 321.694,211.775 C323.057,208.029 322.878,203.973 321.190,200.351 C319.502,196.730 316.510,193.984 312.759,192.620 C311.097,192.021 309.379,191.718 307.654,191.718 C301.392,191.718 295.743,195.669 293.598,201.552 C290.784,209.295 294.792,217.886 302.534,220.704 ZM293.855,296.946 C296.720,303.090 297.024,309.973 294.713,316.325 L294.712,316.326 C291.089,326.309 281.515,333.017 270.892,333.017 C267.947,333.017 265.026,332.500 262.214,331.483 C249.081,326.697 242.284,312.120 247.063,298.988 C250.699,289.004 260.278,282.297 270.898,282.297 C273.851,282.297 276.766,282.813 279.563,283.831 C285.914,286.142 290.990,290.800 293.855,296.946 ZM270.898,292.710 C264.635,292.710 258.987,296.664 256.844,302.549 C254.026,310.286 258.031,318.878 265.777,321.705 C267.393,322.289 269.061,322.565 270.714,322.565 C276.850,322.565 282.757,318.753 284.932,312.765 C286.296,309.021 286.116,304.964 284.427,301.342 C282.739,297.720 279.747,294.976 275.997,293.612 C274.336,293.013 272.620,292.710 270.898,292.710 ZM152.329,275.403 C154.165,275.403 155.946,276.371 156.893,278.084 C158.150,280.362 160.541,283.402 164.788,284.946 C171.721,287.459 179.347,284.575 182.922,278.094 C183.591,276.876 184.695,275.994 186.030,275.607 C187.364,275.221 188.775,275.378 189.993,276.049 C192.504,277.437 193.422,280.608 192.042,283.117 C187.557,291.232 179.085,296.274 169.929,296.274 C166.972,296.274 164.043,295.753 161.224,294.727 C155.559,292.664 150.786,288.545 147.784,283.131 C146.397,280.615 147.310,277.438 149.817,276.051 C150.614,275.611 151.477,275.403 152.329,275.403 ZM233.580,265.659 L32.073,265.659 C14.387,265.659 -0.000,251.271 -0.000,233.585 L-0.000,32.074 C-0.000,14.388 14.387,-0.000 32.073,-0.000 L233.579,-0.000 C251.265,-0.000 265.653,14.388 265.653,32.074 L265.653,233.585 C265.653,251.270 251.265,265.658 233.580,265.659 ZM255.241,32.074 C255.241,20.129 245.524,10.411 233.579,10.411 L32.073,10.411 C20.128,10.411 10.410,20.129 10.410,32.074 L10.410,233.585 C10.410,245.530 20.128,255.248 32.073,255.248 L233.579,255.248 C245.524,255.248 255.241,245.530 255.241,233.585 L255.241,32.074 ZM199.995,225.356 C186.014,225.356 174.640,213.981 174.640,200.000 C174.640,186.018 186.014,174.643 199.995,174.643 C213.976,174.643 225.351,186.018 225.351,200.000 C225.351,213.981 213.976,225.356 199.995,225.356 ZM199.995,185.054 C191.755,185.054 185.050,191.759 185.050,200.000 C185.050,208.241 191.755,214.946 199.995,214.946 C208.235,214.946 214.939,208.241 214.940,200.000 C214.940,191.759 208.236,185.054 199.995,185.054 ZM199.995,91.015 C186.014,91.015 174.640,79.640 174.640,65.659 C174.640,51.677 186.014,40.302 199.995,40.302 C213.976,40.302 225.351,51.677 225.351,65.659 C225.351,79.640 213.976,91.015 199.995,91.015 ZM199.995,50.713 C191.755,50.713 185.050,57.417 185.050,65.659 C185.050,73.900 191.755,80.604 199.995,80.604 C208.235,80.604 214.939,73.900 214.940,65.659 C214.940,57.417 208.236,50.713 199.995,50.713 ZM132.826,158.185 C118.844,158.185 107.469,146.810 107.469,132.829 C107.469,118.847 118.844,107.472 132.826,107.472 C139.588,107.472 145.953,110.113 150.747,114.909 C155.542,119.705 158.182,126.068 158.182,132.829 C158.182,146.810 146.807,158.185 132.826,158.185 ZM132.826,117.883 C124.585,117.883 117.880,124.588 117.880,132.829 C117.880,141.070 124.585,147.775 132.826,147.775 C141.067,147.775 147.771,141.070 147.771,132.829 C147.771,124.588 141.067,117.883 132.826,117.883 ZM65.658,225.356 C51.676,225.356 40.301,213.981 40.301,200.000 C40.301,186.018 51.676,174.643 65.658,174.643 C79.639,174.643 91.013,186.018 91.013,200.000 C91.013,213.981 79.639,225.356 65.658,225.356 ZM65.658,185.054 C57.416,185.054 50.712,191.759 50.712,200.000 C50.712,208.241 57.416,214.946 65.658,214.946 C73.898,214.946 80.602,208.241 80.602,200.000 C80.602,191.759 73.898,185.054 65.658,185.054 ZM65.658,91.015 C51.676,91.015 40.301,79.640 40.301,65.659 C40.301,51.677 51.676,40.302 65.658,40.302 C79.639,40.302 91.013,51.677 91.013,65.659 C91.013,79.640 79.639,91.015 65.658,91.015 ZM65.658,50.713 C57.416,50.713 50.712,57.417 50.712,65.659 C50.712,73.900 57.416,80.604 65.658,80.604 C73.898,80.604 80.602,73.900 80.602,65.659 C80.602,57.417 73.898,50.713 65.658,50.713 Z"/>
</svg>