<svg 
 xmlns="http://www.w3.org/2000/svg"
 xmlns:xlink="http://www.w3.org/1999/xlink"
 width="379px" height="400px">
<path fill-rule="evenodd"  opacity="0.02" fill="rgb(255, 255, 255)"
 d="M353.161,62.573 L352.338,62.724 L352.338,175.798 L371.670,175.798 L371.670,224.200 L333.005,224.200 L333.005,269.604 L292.635,269.604 L292.635,400.000 L0.000,400.000 L0.000,-0.000 L292.635,-0.000 L292.635,130.394 L333.005,130.394 L333.005,175.799 L342.572,175.799 L342.572,62.724 L341.749,62.573 C326.777,59.824 315.910,46.777 315.910,31.550 C315.910,14.153 330.061,-0.000 347.456,-0.000 C355.867,-0.000 363.785,3.285 369.750,9.251 C375.715,15.217 379.000,23.136 379.000,31.550 C379.000,46.777 368.133,59.825 353.161,62.573 ZM42.535,390.232 L250.100,390.232 L250.100,381.498 L42.535,381.498 L42.535,390.232 ZM9.764,390.232 L32.770,390.232 L32.770,371.730 L259.866,371.730 L259.866,390.232 L282.870,390.232 L282.870,294.952 L9.764,294.952 L9.764,390.232 ZM282.870,9.767 L9.764,9.767 L9.764,285.185 L282.871,285.185 L282.870,9.767 ZM323.240,140.162 L292.635,140.162 L292.635,259.837 L323.240,259.837 L323.240,140.162 ZM333.005,185.566 L333.005,214.433 L361.906,214.433 L361.906,185.566 L333.005,185.566 ZM347.456,9.767 C335.446,9.767 325.676,19.539 325.676,31.550 C325.676,43.560 335.446,53.332 347.456,53.332 C359.464,53.332 369.234,43.560 369.234,31.550 C369.234,19.539 359.464,9.767 347.456,9.767 ZM259.866,180.083 L32.770,180.083 L32.770,31.207 L259.866,31.207 L259.866,180.083 ZM105.213,40.974 L42.535,40.974 L42.535,170.316 L105.213,170.316 L105.213,40.974 ZM177.658,40.974 L114.979,40.974 L114.979,170.316 L177.658,170.316 L177.658,40.974 ZM250.101,40.974 L187.423,40.974 L187.423,170.316 L250.101,170.316 L250.101,40.974 ZM210.960,129.726 L201.738,129.726 L223.846,85.354 L198.857,85.354 L198.857,78.157 L236.523,78.157 L210.960,129.726 ZM140.972,129.726 L131.750,129.726 L153.858,85.354 L128.869,85.354 L128.869,78.157 L166.535,78.157 L140.972,129.726 ZM70.984,129.726 L61.761,129.726 L83.870,85.354 L58.880,85.354 L58.880,78.157 L96.547,78.157 L70.984,129.726 ZM56.711,198.304 C69.912,198.304 80.652,209.045 80.653,222.249 C80.653,235.452 69.913,246.195 56.711,246.195 C43.511,246.195 32.771,235.452 32.771,222.249 C32.771,209.045 43.511,198.304 56.711,198.304 ZM56.711,236.427 C64.527,236.427 70.887,230.066 70.888,222.249 C70.888,214.431 64.528,208.071 56.711,208.071 C48.895,208.071 42.535,214.431 42.535,222.249 C42.535,230.066 48.895,236.427 56.711,236.427 ZM92.508,222.249 C92.508,209.045 103.248,198.304 116.449,198.304 C122.834,198.304 128.843,200.797 133.371,205.325 C137.898,209.853 140.390,215.863 140.390,222.249 C140.390,235.452 129.651,246.195 116.449,246.195 C103.248,246.195 92.508,235.452 92.508,222.249 ZM130.625,222.249 C130.625,214.431 124.265,208.071 116.448,208.071 C108.632,208.071 102.272,214.431 102.272,222.249 C102.272,230.066 108.632,236.427 116.448,236.427 C124.265,236.427 130.625,230.066 130.625,222.249 ZM152.246,222.249 C152.246,209.045 162.986,198.304 176.188,198.304 C189.388,198.304 200.128,209.045 200.128,222.249 C200.128,235.452 189.388,246.195 176.188,246.195 C162.986,246.195 152.246,235.452 152.246,222.249 ZM190.363,222.249 C190.363,214.431 184.003,208.071 176.187,208.071 C168.370,208.071 162.010,214.431 162.010,222.249 C162.010,230.066 168.370,236.427 176.187,236.427 C184.003,236.427 190.363,230.066 190.363,222.249 ZM234.915,270.391 L57.714,270.391 L57.714,260.623 L234.915,260.623 L234.915,270.391 ZM211.983,222.249 C211.983,209.045 222.723,198.304 235.925,198.304 C242.309,198.304 248.318,200.797 252.846,205.325 C257.373,209.853 259.865,215.863 259.865,222.249 C259.865,235.452 249.125,246.195 235.925,246.195 C222.723,246.195 211.983,235.452 211.983,222.249 ZM235.925,236.427 C239.705,236.427 243.264,234.951 245.944,232.270 C248.624,229.589 250.101,226.030 250.100,222.249 C250.100,214.431 243.741,208.071 235.925,208.071 C228.108,208.071 221.748,214.431 221.748,222.249 C221.748,230.066 228.108,236.427 235.925,236.427 ZM225.911,312.068 L259.866,312.068 L259.866,356.727 L225.911,356.727 L225.911,312.068 ZM235.676,346.959 L250.101,346.959 L250.101,321.835 L235.676,321.835 L235.676,346.959 ZM32.770,312.068 L212.011,312.068 L212.011,356.727 L32.770,356.727 L32.770,312.068 ZM42.535,346.959 L202.247,346.959 L202.247,321.835 L42.535,321.835 L42.535,346.959 Z"/>
</svg>