<svg 
 xmlns="http://www.w3.org/2000/svg"
 xmlns:xlink="http://www.w3.org/1999/xlink"
 width="392px" height="400px">
<path fill-rule="evenodd"  opacity="0.02" fill="rgb(255, 255, 255)"
 d="M389.232,224.050 L215.977,397.235 C212.949,400.261 208.236,400.875 204.515,398.725 C203.802,398.312 203.140,397.804 202.550,397.215 L88.684,283.395 C86.891,281.602 85.902,279.216 85.899,276.677 C85.895,274.140 86.877,271.760 88.663,269.975 L93.234,265.407 C94.275,264.367 95.644,263.847 97.015,263.847 C98.392,263.847 99.771,264.372 100.822,265.421 C101.838,266.437 102.399,267.787 102.400,269.220 C102.402,270.651 101.846,271.996 100.835,273.007 L97.138,276.703 L209.245,388.764 L379.326,218.752 L380.756,217.323 L332.982,169.569 C331.966,168.553 331.406,167.204 331.404,165.771 C331.402,164.339 331.957,162.994 332.969,161.983 C335.055,159.896 338.460,159.905 340.557,161.997 L389.211,210.631 C391.004,212.424 391.993,214.810 391.996,217.349 C392.000,219.886 391.018,222.265 389.232,224.050 ZM210.519,344.157 C211.528,343.147 212.871,342.591 214.301,342.591 C214.303,342.591 214.306,342.591 214.308,342.591 C215.742,342.592 217.091,343.153 218.107,344.169 C219.124,345.185 219.684,346.533 219.686,347.967 C219.688,349.399 219.132,350.744 218.122,351.754 L213.158,356.717 C211.446,358.429 208.784,358.776 206.685,357.561 C206.281,357.329 205.906,357.041 205.570,356.704 C204.553,355.688 203.993,354.340 203.991,352.905 C203.989,351.474 204.544,350.129 205.555,349.119 L210.518,344.157 L210.519,344.157 ZM274.931,225.838 L276.559,226.877 C278.081,227.849 279.585,229.073 281.028,230.514 C285.452,234.936 287.891,240.820 287.900,247.083 C287.908,253.344 285.485,259.218 281.077,263.626 C273.865,270.835 262.554,275.148 246.499,276.814 L245.472,276.920 L228.114,307.020 C226.854,309.204 224.814,310.768 222.368,311.423 C219.913,312.082 217.350,311.744 215.151,310.473 L75.775,229.911 C71.236,227.288 69.668,221.470 72.279,216.942 L89.637,186.843 L89.216,185.903 C82.626,171.151 80.702,159.187 83.333,149.324 C84.943,143.288 88.811,138.246 94.225,135.128 C97.824,133.055 101.817,131.996 105.866,131.996 C107.909,131.996 109.967,132.266 111.993,132.812 C113.962,133.342 115.774,134.034 117.378,134.869 L119.095,135.762 L194.669,4.716 C195.929,2.532 197.969,0.967 200.414,0.313 C202.867,-0.345 205.430,-0.008 207.630,1.262 L347.006,81.824 C351.546,84.447 353.114,90.266 350.504,94.794 L274.931,225.838 ZM256.683,264.293 C264.192,262.518 269.684,259.814 273.472,256.027 C278.415,251.085 278.405,243.037 273.452,238.085 C272.781,237.413 272.106,236.830 271.448,236.351 L269.630,235.027 L252.132,265.369 L256.683,264.293 ZM111.746,144.043 C111.000,143.709 110.157,143.416 109.241,143.169 C105.968,142.290 102.547,142.735 99.610,144.427 C96.673,146.120 94.576,148.854 93.703,152.124 C92.322,157.301 92.730,163.416 94.947,170.814 L96.293,175.302 L113.793,144.955 L111.746,144.043 ZM203.356,11.164 L125.039,146.970 C125.004,147.035 124.966,147.099 124.905,147.202 L82.199,221.255 L219.423,300.571 L262.163,226.459 C262.197,226.397 262.233,226.336 262.293,226.235 L340.581,90.483 L203.356,11.164 ZM243.321,177.895 L189.492,202.627 C187.914,203.351 186.071,203.266 184.561,202.394 C183.052,201.521 182.053,199.965 181.893,198.232 L176.371,139.195 C176.160,136.937 177.401,134.785 179.458,133.841 L233.288,109.109 C233.999,108.783 234.761,108.621 235.524,108.621 C236.457,108.621 237.388,108.863 238.218,109.343 C239.727,110.215 240.726,111.770 240.887,113.504 L246.407,172.541 L246.407,172.540 C246.618,174.797 245.377,176.950 243.321,177.895 ZM230.908,122.024 L187.411,142.010 L191.872,189.710 L235.368,169.726 L230.908,122.024 ZM213.676,54.614 C212.963,55.850 211.810,56.735 210.430,57.104 C209.044,57.475 207.595,57.283 206.351,56.563 C203.784,55.080 202.897,51.791 204.373,49.232 L207.879,43.151 C208.593,41.915 209.745,41.030 211.125,40.661 C211.585,40.537 212.054,40.476 212.520,40.476 C213.452,40.476 214.374,40.722 215.205,41.202 C217.771,42.685 218.659,45.975 217.183,48.534 L213.676,54.614 ZM209.104,257.121 C209.816,255.885 210.969,255.001 212.347,254.631 C212.810,254.507 213.278,254.446 213.745,254.446 C214.678,254.446 215.599,254.692 216.429,255.171 C218.995,256.656 219.882,259.946 218.407,262.503 L214.901,268.585 C214.187,269.821 213.036,270.705 211.656,271.074 C210.270,271.447 208.820,271.253 207.575,270.533 C205.008,269.050 204.121,265.762 205.596,263.202 L209.104,257.121 ZM88.684,66.252 C89.508,65.775 90.424,65.532 91.353,65.532 C91.820,65.532 92.292,65.594 92.756,65.719 C95.618,66.490 97.327,69.441 96.565,72.298 L94.755,79.083 C94.387,80.464 93.502,81.618 92.265,82.331 C91.025,83.047 89.579,83.237 88.192,82.862 C87.735,82.740 87.297,82.559 86.891,82.324 C84.790,81.110 83.759,78.626 84.384,76.284 L86.195,69.498 C86.563,68.119 87.447,66.965 88.684,66.252 ZM142.819,56.765 C141.578,57.482 140.132,57.671 138.743,57.297 L73.542,39.754 L10.997,274.174 L78.104,292.232 C80.966,293.002 82.674,295.954 81.912,298.813 C81.544,300.192 80.661,301.345 79.424,302.060 C78.183,302.775 76.735,302.965 75.350,302.591 L7.041,284.211 C6.230,283.992 5.455,283.671 4.738,283.256 C3.309,282.430 2.110,281.226 1.270,279.774 C-0.004,277.572 -0.345,275.013 0.308,272.569 L63.490,35.764 C64.140,33.323 65.709,31.281 67.904,30.015 C69.365,29.174 70.984,28.744 72.624,28.744 C73.451,28.744 74.283,28.853 75.102,29.074 L141.499,46.940 C144.360,47.710 146.068,50.661 145.306,53.518 C144.938,54.898 144.055,56.051 142.819,56.765 Z"/>
</svg>