<svg 
 xmlns="http://www.w3.org/2000/svg"
 xmlns:xlink="http://www.w3.org/1999/xlink"
 width="311px" height="400px">
<path fill-rule="evenodd"  opacity="0.02" fill="rgb(255, 255, 255)"
 d="M205.257,328.688 L203.886,329.153 L203.886,359.848 L247.649,359.848 C251.312,359.848 254.293,362.836 254.293,366.508 L254.293,395.707 C254.293,398.074 252.373,399.999 250.012,399.999 L60.988,399.999 C58.627,399.999 56.707,398.074 56.707,395.707 L56.707,366.508 C56.707,362.836 59.688,359.848 63.351,359.848 L107.113,359.848 L107.113,329.153 L105.743,328.688 C42.495,307.229 -0.000,247.903 -0.000,181.060 C-0.000,143.986 13.216,108.065 37.215,79.915 C58.565,54.871 87.873,36.930 119.741,29.397 L123.261,28.565 L102.067,7.329 C100.838,6.096 100.473,4.258 101.139,2.648 C101.803,1.039 103.356,-0.000 105.094,-0.000 L205.906,-0.000 C207.642,-0.000 209.195,1.040 209.861,2.649 C210.527,4.258 210.162,6.096 208.932,7.329 L187.738,28.566 L191.258,29.398 C223.136,36.933 252.450,54.881 273.800,79.934 C297.788,108.081 311.000,143.995 311.000,181.060 C311.000,247.903 268.505,307.229 205.257,328.688 ZM65.269,368.434 L65.269,391.413 L245.731,391.413 L245.731,368.434 L65.269,368.434 ZM195.324,359.848 L195.324,331.700 L192.820,332.321 C168.466,338.356 142.534,338.356 118.180,332.321 L115.675,331.700 L115.675,359.848 L195.324,359.848 ZM195.565,8.585 L115.435,8.585 L155.500,48.729 L195.565,8.585 ZM237.410,176.767 L277.177,176.767 L277.066,174.642 C276.173,157.465 271.766,141.007 263.968,125.725 L263.001,123.829 L199.416,160.612 L200.102,162.252 C201.805,166.318 202.949,170.606 203.502,174.999 L203.725,176.767 L212.207,176.767 C214.568,176.767 216.488,178.693 216.488,181.060 C216.488,183.427 214.568,185.353 212.207,185.353 L203.715,185.353 L203.494,187.123 C202.942,191.541 201.799,195.828 200.099,199.861 L199.407,201.504 L263.001,238.292 L263.968,236.395 C271.766,221.113 276.173,204.655 277.066,187.478 L277.177,185.353 L237.410,185.353 C235.049,185.353 233.129,183.427 233.129,181.060 C233.129,178.693 235.049,176.767 237.410,176.767 ZM195.106,208.927 L194.029,210.346 C191.360,213.861 188.231,216.997 184.725,219.669 L183.312,220.745 L220.028,284.462 L221.815,283.294 C235.962,274.052 248.315,261.675 257.538,247.501 L258.699,245.717 L195.106,208.927 ZM175.906,225.054 L174.261,225.750 C170.237,227.453 165.960,228.598 161.549,229.152 L159.781,229.374 L159.781,302.973 L161.906,302.861 C179.049,301.967 195.476,297.550 210.730,289.737 L212.619,288.770 L175.906,225.054 ZM195.323,181.060 C195.323,174.583 193.825,168.408 190.870,162.705 C190.400,161.797 190.270,160.745 190.505,159.745 L190.594,159.367 L190.537,158.984 C190.274,157.223 191.094,155.513 192.627,154.626 L258.699,116.404 L257.538,114.619 C248.315,100.447 235.962,88.069 221.815,78.826 L220.028,77.657 L214.086,87.969 C213.323,89.292 211.900,90.115 210.373,90.115 C209.627,90.115 208.889,89.916 208.238,89.540 C206.192,88.357 205.489,85.725 206.671,83.674 L212.620,73.351 L210.731,72.383 C195.476,64.569 179.049,60.154 161.907,59.259 L159.782,59.148 L159.782,132.737 L161.553,132.956 C165.912,133.496 170.187,134.644 174.263,136.369 L175.908,137.065 L194.632,104.568 C195.205,103.574 196.129,102.863 197.234,102.567 C198.337,102.271 199.490,102.423 200.480,102.997 C202.526,104.181 203.228,106.811 202.047,108.863 L181.878,143.863 C180.938,145.497 178.962,146.358 177.093,145.872 L176.656,145.758 L176.212,145.841 C175.275,146.017 174.336,145.884 173.493,145.456 C167.890,142.606 161.835,141.161 155.499,141.161 C133.540,141.161 115.675,159.060 115.675,181.060 C115.675,203.060 133.540,220.959 155.499,220.959 C177.458,220.959 195.323,203.060 195.323,181.060 ZM151.218,229.374 L149.450,229.152 C145.039,228.598 140.763,227.453 136.739,225.750 L135.094,225.054 L98.380,288.770 L100.270,289.737 C115.523,297.550 131.950,301.967 149.093,302.861 L151.218,302.973 L151.218,229.374 ZM127.688,220.745 L126.274,219.669 C122.769,216.997 119.639,213.861 116.971,210.346 L115.893,208.927 L52.300,245.717 L53.462,247.501 C62.685,261.675 75.038,274.052 89.184,283.294 L90.972,284.462 L127.688,220.745 ZM111.593,201.504 L110.901,199.861 C109.201,195.828 108.058,191.541 107.506,187.123 L107.285,185.353 L33.823,185.353 L33.934,187.478 C34.827,204.655 39.234,221.113 47.032,236.395 L47.999,238.292 L111.593,201.504 ZM107.285,176.767 L107.506,174.997 C108.058,170.579 109.201,166.293 110.901,162.258 L111.593,160.617 L47.999,123.829 L47.032,125.725 C39.234,141.007 34.827,157.465 33.934,174.642 L33.823,176.767 L107.285,176.767 ZM115.894,153.192 L116.971,151.774 C119.639,148.259 122.769,145.123 126.274,142.451 L127.688,141.375 L90.972,77.657 L89.184,78.826 C75.037,88.069 62.685,100.447 53.462,114.619 L52.300,116.404 L115.894,153.192 ZM135.094,137.066 L136.739,136.370 C140.762,134.666 145.039,133.522 149.450,132.968 L151.218,132.746 L151.218,59.148 L149.093,59.259 C131.950,60.154 115.522,64.570 100.270,72.383 L98.380,73.351 L135.094,137.066 ZM267.292,85.513 L267.291,85.513 C245.213,59.607 214.714,42.068 181.412,36.129 L180.374,35.943 L165.518,50.827 L169.702,51.284 C187.580,53.235 204.553,58.772 220.152,67.742 L220.303,67.820 C220.420,67.875 220.537,67.932 220.649,67.997 C220.784,68.075 220.912,68.160 221.035,68.250 L221.203,68.360 C240.491,79.693 256.665,95.899 267.976,115.226 L268.085,115.393 C268.176,115.516 268.262,115.646 268.338,115.778 C268.402,115.890 268.458,116.004 268.511,116.120 L268.591,116.275 C279.847,135.923 285.797,158.325 285.797,181.060 C285.797,203.794 279.848,226.197 268.592,245.846 L268.511,246.002 C268.458,246.118 268.401,246.232 268.339,246.339 C268.305,246.399 268.264,246.452 268.226,246.508 L268.051,246.769 C256.736,266.150 240.537,282.401 221.203,293.761 L221.042,293.866 C220.915,293.958 220.784,294.046 220.586,294.153 L220.299,294.297 C200.655,305.627 178.248,311.615 155.500,311.615 C132.751,311.615 110.345,305.627 90.702,294.297 L90.352,294.124 C90.216,294.045 90.087,293.960 89.962,293.869 L89.798,293.761 C70.464,282.401 54.264,266.150 42.950,246.769 L42.790,246.528 C42.744,246.464 42.696,246.401 42.662,246.345 C42.598,246.232 42.543,246.118 42.490,246.002 L42.409,245.846 C31.153,226.199 25.203,203.797 25.203,181.060 C25.203,158.324 31.153,135.921 42.409,116.276 L42.489,116.120 C42.543,116.004 42.599,115.889 42.659,115.784 C42.737,115.650 42.821,115.521 42.911,115.398 L43.024,115.226 C54.335,95.899 70.510,79.693 89.798,68.360 L89.961,68.253 C90.088,68.161 90.218,68.074 90.350,67.997 C90.461,67.933 90.576,67.878 90.690,67.825 L90.842,67.746 C106.442,58.773 123.417,53.235 141.297,51.284 L145.481,50.827 L130.626,35.943 L129.588,36.129 C96.294,42.066 65.801,59.599 43.724,85.494 C21.050,112.090 8.562,146.029 8.562,181.060 C8.562,262.239 74.478,328.282 155.500,328.282 C236.522,328.282 302.438,262.239 302.438,181.060 C302.438,146.039 289.956,112.106 267.292,85.513 ZM140.693,202.103 C139.550,201.271 138.891,199.928 138.930,198.511 L139.246,186.973 L132.220,177.825 C131.359,176.702 131.105,175.227 131.542,173.878 C131.979,172.531 133.049,171.487 134.404,171.088 L145.456,167.823 L151.969,158.301 C152.767,157.133 154.088,156.436 155.500,156.436 C156.912,156.436 158.232,157.133 159.031,158.301 L165.544,167.823 L176.597,171.088 C177.952,171.488 179.022,172.531 179.458,173.877 C179.895,175.227 179.642,176.702 178.779,177.825 L171.754,186.973 L172.071,198.511 C172.109,199.928 171.450,201.271 170.307,202.104 C169.171,202.929 167.671,203.142 166.357,202.676 L155.500,198.807 L144.643,202.675 C143.314,203.147 141.837,202.935 140.693,202.103 ZM147.662,192.488 L154.066,190.206 C154.993,189.877 156.011,189.877 156.934,190.206 L163.340,192.488 L163.152,185.684 C163.125,184.699 163.441,183.726 164.040,182.946 L168.182,177.553 L161.666,175.628 C160.724,175.350 159.900,174.750 159.344,173.939 L155.501,168.319 L151.657,173.938 C151.102,174.750 150.277,175.350 149.336,175.628 L142.820,177.553 L146.961,182.945 C147.560,183.726 147.875,184.698 147.849,185.683 L147.662,192.488 Z"/>
</svg>