<svg 
 xmlns="http://www.w3.org/2000/svg"
 xmlns:xlink="http://www.w3.org/1999/xlink"
 width="400px" height="400px">
<path fill-rule="evenodd"  opacity="0.02" fill="rgb(255, 255, 255)"
 d="M370.466,400.000 L29.535,400.000 C13.249,400.000 -0.000,386.751 -0.000,370.465 L-0.000,204.071 C-0.000,151.132 19.995,100.812 56.301,62.379 C92.896,23.642 141.935,1.516 194.382,0.078 C196.279,0.026 198.170,-0.000 200.059,-0.000 C252.474,-0.000 301.787,19.990 339.458,56.642 C358.409,75.082 373.306,96.689 383.732,120.862 C394.527,145.895 400.000,172.520 400.000,200.000 L400.000,370.465 C400.000,386.751 386.752,400.000 370.466,400.000 ZM391.413,200.000 C391.413,147.878 370.836,99.151 333.470,62.796 C297.540,27.838 250.155,8.586 200.044,8.586 C198.225,8.586 196.400,8.610 194.617,8.660 C144.465,10.035 97.559,31.207 62.542,68.275 C27.747,105.106 8.585,153.333 8.585,204.071 L8.585,370.465 C8.585,382.017 17.983,391.415 29.534,391.415 L370.466,391.415 C376.053,391.415 381.311,389.234 385.272,385.273 C389.233,381.312 391.414,376.053 391.413,370.465 L391.413,200.000 ZM357.828,368.434 L307.323,368.434 C301.475,368.434 296.717,363.676 296.717,357.829 L296.717,269.445 C296.717,263.597 301.475,258.839 307.323,258.839 L357.828,258.839 C363.677,258.839 368.435,263.597 368.435,269.445 L368.435,357.829 C368.435,363.676 363.677,368.434 357.828,368.434 ZM359.849,267.423 L305.303,267.424 L305.303,359.849 L359.849,359.849 L359.849,267.423 ZM319.950,277.779 C321.083,277.779 322.191,278.236 322.988,279.033 C323.785,279.831 324.243,280.938 324.243,282.071 C324.243,283.204 323.785,284.311 322.988,285.109 C322.191,285.906 321.083,286.363 319.950,286.363 C318.816,286.363 317.708,285.906 316.911,285.108 C316.114,284.311 315.657,283.204 315.657,282.071 C315.657,280.938 316.114,279.831 316.911,279.034 C317.708,278.236 318.816,277.779 319.950,277.779 ZM319.950,340.910 C321.083,340.910 322.191,341.368 322.988,342.165 C323.785,342.963 324.243,344.069 324.243,345.202 C324.243,346.335 323.785,347.443 322.988,348.240 C322.190,349.038 321.083,349.495 319.950,349.495 C318.816,349.495 317.709,349.038 316.911,348.240 C316.114,347.443 315.657,346.335 315.657,345.202 C315.657,344.069 316.114,342.963 316.911,342.165 C317.708,341.368 318.816,340.910 319.950,340.910 ZM332.576,303.031 C338.424,303.031 343.182,307.789 343.182,313.637 C343.182,319.484 338.424,324.242 332.576,324.242 C326.727,324.242 321.970,319.484 321.970,313.637 C321.970,307.789 326.727,303.031 332.576,303.031 ZM345.202,340.910 C346.336,340.910 347.443,341.368 348.240,342.165 C349.037,342.963 349.495,344.069 349.495,345.202 C349.495,346.335 349.037,347.443 348.240,348.240 C347.442,349.038 346.336,349.495 345.202,349.495 C344.069,349.495 342.962,349.038 342.164,348.240 C341.367,347.443 340.909,346.335 340.909,345.202 C340.909,344.069 341.367,342.963 342.164,342.165 C342.961,341.368 344.069,340.910 345.202,340.910 ZM345.202,286.363 C344.069,286.363 342.961,285.906 342.164,285.108 C341.367,284.311 340.909,283.204 340.909,282.071 C340.909,280.938 341.367,279.831 342.164,279.034 C342.961,278.236 344.069,277.779 345.202,277.779 C346.336,277.779 347.443,278.236 348.240,279.033 C349.037,279.831 349.495,280.938 349.495,282.071 C349.495,283.204 349.037,284.311 348.240,285.109 C347.443,285.906 346.336,286.363 345.202,286.363 ZM338.889,223.232 C322.597,223.232 309.344,209.978 309.344,193.687 C309.344,177.396 322.598,164.142 338.890,164.142 C341.390,164.142 343.877,164.457 346.282,165.076 C347.392,165.362 348.324,166.064 348.907,167.052 C349.490,168.039 349.654,169.194 349.368,170.303 C348.777,172.594 346.431,173.977 344.139,173.389 C342.436,172.950 340.669,172.727 338.889,172.727 C327.332,172.727 317.929,182.130 317.929,193.687 C317.929,205.244 327.332,214.647 338.889,214.647 C350.446,214.647 359.849,205.244 359.849,193.687 C359.849,191.908 359.626,190.142 359.187,188.436 C358.901,187.326 359.063,186.172 359.646,185.185 C360.229,184.197 361.162,183.496 362.271,183.210 C364.561,182.617 366.910,184.003 367.501,186.296 C368.121,188.698 368.435,191.185 368.435,193.687 C368.435,209.978 355.181,223.232 338.889,223.232 ZM294.697,128.535 C278.406,128.535 265.153,115.281 265.153,98.990 C265.153,82.699 278.406,69.445 294.698,69.445 C297.196,69.445 299.683,69.759 302.090,70.379 C304.382,70.970 305.767,73.315 305.176,75.607 C304.585,77.897 302.242,79.283 299.947,78.692 C298.243,78.253 296.477,78.030 294.697,78.030 C283.140,78.030 273.737,87.433 273.737,98.990 C273.737,110.547 283.140,119.950 294.697,119.950 C306.254,119.950 315.657,110.547 315.657,98.990 C315.657,97.211 315.434,95.444 314.995,93.740 C314.709,92.630 314.872,91.475 315.454,90.488 C316.037,89.500 316.970,88.799 318.080,88.512 C320.371,87.922 322.719,89.308 323.309,91.598 C323.929,94.001 324.243,96.488 324.243,98.990 C324.243,115.281 310.989,128.535 294.697,128.535 ZM280.051,174.748 L280.051,218.940 C280.051,228.269 272.461,235.858 263.131,235.858 L136.869,235.858 C127.539,235.858 119.949,228.269 119.949,218.940 L119.949,174.748 C119.949,165.419 127.539,157.829 136.869,157.829 L237.880,157.829 C240.247,157.829 242.173,159.755 242.173,162.122 C242.173,164.488 240.247,166.414 237.880,166.414 L136.869,166.414 C132.274,166.414 128.535,170.152 128.535,174.748 L128.535,218.940 C128.535,223.535 132.274,227.274 136.869,227.274 L263.131,227.274 C267.726,227.274 271.465,223.535 271.465,218.940 L271.465,174.748 C271.465,170.152 267.726,166.414 263.131,166.414 C260.764,166.414 258.838,164.488 258.838,162.122 C258.838,159.755 260.765,157.829 263.132,157.829 C272.461,157.829 280.051,165.419 280.051,174.748 ZM200.000,90.656 C183.709,90.656 170.455,77.402 170.455,61.111 C170.455,44.820 183.709,31.567 200.001,31.567 C202.500,31.567 204.988,31.881 207.393,32.500 C208.503,32.786 209.435,33.487 210.018,34.476 C210.601,35.463 210.765,36.618 210.479,37.727 C209.888,40.019 207.539,41.406 205.250,40.813 C203.545,40.374 201.778,40.151 200.000,40.151 C188.443,40.151 179.040,49.554 179.040,61.111 C179.040,72.669 188.443,82.071 200.000,82.071 C211.557,82.071 220.960,72.669 220.960,61.111 C220.960,59.332 220.737,57.566 220.298,55.860 C220.012,54.751 220.174,53.596 220.757,52.609 C221.340,51.621 222.272,50.920 223.383,50.633 C225.673,50.048 228.020,51.427 228.612,53.720 C229.232,56.123 229.546,58.609 229.546,61.111 C229.546,77.402 216.292,90.656 200.000,90.656 ZM105.304,128.535 C89.013,128.535 75.758,115.281 75.758,98.990 C75.758,82.699 89.013,69.445 105.304,69.445 C107.802,69.445 110.289,69.759 112.696,70.379 C114.988,70.970 116.373,73.315 115.782,75.607 C115.191,77.897 112.843,79.283 110.553,78.692 C108.849,78.253 107.082,78.030 105.303,78.030 C93.746,78.030 84.343,87.433 84.343,98.990 C84.343,110.547 93.746,119.950 105.303,119.950 C116.860,119.950 126.262,110.547 126.262,98.990 C126.262,97.211 126.040,95.444 125.601,93.740 C125.315,92.630 125.477,91.475 126.060,90.488 C126.643,89.500 127.575,88.799 128.686,88.512 C130.970,87.923 133.323,89.305 133.915,91.598 C134.535,94.001 134.848,96.488 134.848,98.990 C134.848,115.281 121.595,128.535 105.304,128.535 ZM66.361,173.389 C64.658,172.950 62.891,172.727 61.111,172.727 C49.554,172.727 40.151,182.130 40.151,193.687 C40.151,205.244 49.554,214.647 61.111,214.647 C72.668,214.647 82.070,205.244 82.070,193.687 C82.070,191.907 81.848,190.141 81.408,188.436 C81.122,187.327 81.285,186.172 81.868,185.185 C82.451,184.197 83.384,183.496 84.494,183.210 C86.792,182.618 89.132,184.005 89.723,186.296 C90.342,188.698 90.656,191.185 90.656,193.687 C90.656,209.978 77.402,223.232 61.111,223.232 C44.820,223.232 31.566,209.978 31.566,193.687 C31.566,177.396 44.821,164.142 61.112,164.142 C63.612,164.142 66.099,164.457 68.504,165.076 C69.614,165.362 70.547,166.064 71.129,167.052 C71.712,168.039 71.875,169.194 71.589,170.304 C70.999,172.596 68.651,173.980 66.361,173.389 ZM42.172,258.839 L92.677,258.839 C98.525,258.839 103.283,263.597 103.283,269.445 L103.283,357.829 C103.283,363.676 98.525,368.434 92.677,368.434 L42.172,368.434 C36.323,368.434 31.565,363.676 31.565,357.829 L31.565,269.445 C31.565,263.597 36.323,258.839 42.172,258.839 ZM40.151,359.849 L94.697,359.849 L94.697,267.423 L40.151,267.424 L40.151,359.849 ZM80.050,349.495 C78.917,349.495 77.810,349.038 77.012,348.240 C76.215,347.443 75.757,346.335 75.757,345.202 C75.757,344.069 76.215,342.963 77.012,342.165 C77.810,341.368 78.917,340.910 80.050,340.910 C81.184,340.910 82.291,341.368 83.088,342.165 C83.886,342.963 84.343,344.069 84.343,345.202 C84.343,346.335 83.886,347.443 83.088,348.240 C82.291,349.038 81.184,349.495 80.050,349.495 ZM80.050,286.363 C78.917,286.363 77.810,285.906 77.012,285.108 C76.215,284.311 75.757,283.204 75.757,282.071 C75.757,280.938 76.215,279.831 77.012,279.034 C77.809,278.236 78.917,277.779 80.050,277.779 C81.184,277.779 82.292,278.236 83.088,279.033 C83.886,279.831 84.343,280.938 84.343,282.071 C84.343,283.204 83.886,284.311 83.088,285.109 C82.291,285.906 81.184,286.363 80.050,286.363 ZM67.424,324.242 C61.576,324.242 56.818,319.484 56.818,313.637 C56.818,307.789 61.576,303.031 67.424,303.031 C73.272,303.031 78.030,307.789 78.030,313.637 C78.030,319.484 73.272,324.242 67.424,324.242 ZM54.798,286.363 C53.664,286.363 52.557,285.906 51.759,285.108 C50.962,284.311 50.505,283.204 50.505,282.071 C50.505,280.938 50.962,279.831 51.759,279.034 C52.557,278.236 53.664,277.779 54.798,277.779 C55.931,277.779 57.039,278.236 57.836,279.033 C58.633,279.831 59.091,280.938 59.091,282.071 C59.091,283.204 58.633,284.311 57.836,285.109 C57.038,285.906 55.931,286.363 54.798,286.363 ZM54.798,340.910 C55.931,340.910 57.038,341.368 57.836,342.165 C58.633,342.963 59.091,344.069 59.091,345.202 C59.091,346.335 58.633,347.443 57.836,348.240 C57.038,349.038 55.931,349.495 54.798,349.495 C53.664,349.495 52.557,349.038 51.759,348.240 C50.962,347.443 50.505,346.335 50.505,345.202 C50.505,344.069 50.962,342.963 51.759,342.165 C52.557,341.368 53.664,340.910 54.798,340.910 ZM130.555,258.839 L181.061,258.839 C186.909,258.839 191.667,263.597 191.667,269.445 L191.667,357.829 C191.667,363.676 186.909,368.434 181.061,368.434 L130.555,368.434 C124.707,368.434 119.949,363.676 119.949,357.829 L119.949,269.445 C119.949,263.597 124.707,258.839 130.555,258.839 ZM128.535,359.849 L183.081,359.849 L183.081,267.423 L128.535,267.424 L128.535,359.849 ZM168.434,349.495 C167.301,349.495 166.194,349.038 165.396,348.240 C164.599,347.443 164.141,346.335 164.141,345.202 C164.141,344.069 164.599,342.963 165.396,342.165 C166.193,341.368 167.301,340.910 168.434,340.910 C169.568,340.910 170.676,341.368 171.472,342.165 C172.270,342.963 172.727,344.069 172.727,345.202 C172.727,346.335 172.270,347.443 171.472,348.240 C170.674,349.038 169.568,349.495 168.434,349.495 ZM168.434,286.363 C167.301,286.363 166.193,285.906 165.396,285.108 C164.599,284.311 164.141,283.204 164.141,282.071 C164.141,280.938 164.599,279.831 165.396,279.034 C166.193,278.236 167.301,277.779 168.434,277.779 C169.568,277.779 170.676,278.236 171.472,279.033 C172.270,279.831 172.727,280.938 172.727,282.071 C172.727,283.204 172.270,284.311 171.472,285.109 C170.676,285.906 169.568,286.363 168.434,286.363 ZM155.808,324.242 C149.959,324.242 145.202,319.484 145.202,313.637 C145.202,307.789 149.959,303.031 155.808,303.031 C161.657,303.031 166.414,307.789 166.414,313.637 C166.414,319.484 161.657,324.242 155.808,324.242 ZM143.182,286.363 C142.048,286.363 140.941,285.906 140.143,285.108 C139.347,284.311 138.889,283.204 138.889,282.071 C138.889,280.938 139.347,279.831 140.143,279.034 C140.941,278.236 142.048,277.779 143.182,277.779 C144.315,277.779 145.423,278.236 146.220,279.033 C147.017,279.831 147.475,280.938 147.475,282.071 C147.475,283.204 147.017,284.311 146.220,285.109 C145.423,285.906 144.315,286.363 143.182,286.363 ZM143.182,340.910 C144.315,340.910 145.423,341.368 146.220,342.165 C147.017,342.963 147.475,344.069 147.475,345.202 C147.475,346.335 147.017,347.443 146.220,348.240 C145.422,349.038 144.315,349.495 143.182,349.495 C142.048,349.495 140.942,349.038 140.143,348.240 C139.347,347.443 138.889,346.335 138.889,345.202 C138.889,344.069 139.347,342.963 140.143,342.165 C140.941,341.368 142.048,340.910 143.182,340.910 ZM218.939,258.839 L269.444,258.839 C275.293,258.839 280.051,263.597 280.051,269.445 L280.051,357.829 C280.051,363.676 275.293,368.434 269.444,368.434 L218.939,368.434 C213.091,368.434 208.333,363.676 208.333,357.829 L208.333,269.445 C208.333,263.597 213.091,258.839 218.939,258.839 ZM216.919,359.849 L271.465,359.849 L271.465,267.423 L216.919,267.424 L216.919,359.849 ZM256.818,349.495 C255.685,349.495 254.578,349.038 253.780,348.240 C252.983,347.443 252.525,346.335 252.525,345.202 C252.525,344.069 252.983,342.963 253.780,342.165 C254.577,341.368 255.685,340.910 256.818,340.910 C257.952,340.910 259.059,341.368 259.856,342.165 C260.653,342.963 261.111,344.069 261.111,345.202 C261.111,346.335 260.653,347.443 259.856,348.240 C259.058,349.038 257.952,349.495 256.818,349.495 ZM256.818,286.363 C255.685,286.363 254.577,285.906 253.780,285.108 C252.983,284.311 252.525,283.204 252.525,282.071 C252.525,280.938 252.983,279.831 253.780,279.034 C254.577,278.236 255.685,277.779 256.818,277.779 C257.952,277.779 259.059,278.236 259.856,279.033 C260.653,279.831 261.111,280.938 261.111,282.071 C261.111,283.204 260.653,284.311 259.856,285.109 C259.059,285.906 257.952,286.363 256.818,286.363 ZM244.192,324.242 C238.343,324.242 233.586,319.484 233.586,313.637 C233.586,307.789 238.343,303.031 244.192,303.031 C250.041,303.031 254.798,307.789 254.798,313.637 C254.798,319.484 250.041,324.242 244.192,324.242 ZM231.566,286.363 C230.432,286.363 229.325,285.906 228.527,285.108 C227.730,284.311 227.273,283.204 227.273,282.071 C227.273,280.938 227.730,279.831 228.527,279.034 C229.325,278.236 230.432,277.779 231.566,277.779 C232.699,277.779 233.807,278.236 234.604,279.033 C235.401,279.831 235.859,280.938 235.859,282.071 C235.859,283.204 235.401,284.311 234.604,285.109 C233.807,285.906 232.699,286.363 231.566,286.363 ZM231.566,340.910 C232.699,340.910 233.807,341.368 234.604,342.165 C235.401,342.963 235.859,344.069 235.859,345.202 C235.859,346.335 235.401,347.443 234.604,348.240 C233.806,349.038 232.699,349.495 231.566,349.495 C230.432,349.495 229.325,349.038 228.527,348.240 C227.730,347.443 227.273,346.335 227.273,345.202 C227.273,344.069 227.730,342.963 228.527,342.165 C229.325,341.368 230.432,340.910 231.566,340.910 Z"/>
</svg>