<svg 
 xmlns="http://www.w3.org/2000/svg"
 xmlns:xlink="http://www.w3.org/1999/xlink"
 width="400px" height="400px">
<path fill-rule="evenodd"  opacity="0.02" fill="rgb(255, 255, 255)"
 d="M200.000,400.000 C89.719,400.000 0.000,310.280 0.000,200.000 C0.000,89.719 89.719,-0.000 200.000,-0.000 C310.280,-0.000 400.000,89.719 400.000,200.000 C400.000,310.280 310.280,400.000 200.000,400.000 ZM200.000,9.427 C94.918,9.427 9.428,94.918 9.428,200.000 C9.428,305.082 94.918,390.572 200.000,390.572 C305.082,390.572 390.572,305.082 390.572,200.000 C390.572,94.918 305.082,9.427 200.000,9.427 ZM368.349,204.714 L346.051,204.714 L345.963,206.642 C345.585,214.941 344.488,223.257 342.702,231.357 L342.287,233.242 L363.829,239.030 C365.045,239.356 366.062,240.137 366.691,241.231 C367.319,242.321 367.483,243.588 367.155,244.803 C366.496,247.259 363.892,248.823 361.380,248.129 L339.867,242.349 L339.282,244.189 C336.784,252.036 333.558,259.779 329.692,267.202 L328.799,268.916 L348.141,280.099 C349.232,280.731 350.012,281.749 350.337,282.964 C350.663,284.180 350.494,285.448 349.860,286.541 C349.023,287.994 347.458,288.897 345.773,288.897 C344.952,288.897 344.136,288.677 343.418,288.266 L324.071,277.077 L323.029,278.701 C318.473,285.797 313.371,292.449 307.865,298.469 L306.561,299.893 L322.367,315.715 C324.200,317.557 324.199,320.549 322.368,322.380 C321.471,323.273 320.286,323.765 319.032,323.765 C317.768,323.765 316.584,323.274 315.693,322.378 L299.895,306.558 L298.469,307.863 C292.468,313.352 285.816,318.455 278.700,323.028 L277.081,324.069 L288.247,343.450 C288.876,344.537 289.043,345.803 288.718,347.018 C288.392,348.237 287.608,349.256 286.518,349.884 C285.800,350.296 284.989,350.513 284.169,350.513 C282.480,350.513 280.915,349.611 280.081,348.156 L268.919,328.795 L267.201,329.690 C259.797,333.551 252.057,336.778 244.197,339.281 L242.360,339.865 L248.117,361.395 C248.786,363.909 247.288,366.502 244.780,367.173 C244.382,367.279 243.971,367.333 243.558,367.333 C241.429,367.333 239.560,365.895 239.011,363.834 L233.253,342.284 L231.365,342.700 C223.266,344.486 214.948,345.583 206.644,345.962 L204.717,346.049 L204.702,368.357 C204.702,370.953 202.588,373.065 199.982,373.065 C197.387,373.065 195.276,370.947 195.276,368.344 L195.290,346.049 L193.361,345.962 C185.061,345.583 176.746,344.486 168.646,342.700 L166.761,342.285 L160.968,363.838 C160.415,365.892 158.545,367.326 156.420,367.326 C156.002,367.326 155.588,367.272 155.194,367.168 C153.975,366.838 152.958,366.057 152.329,364.966 C151.701,363.876 151.536,362.605 151.865,361.386 L157.653,339.865 L155.812,339.279 C147.974,336.787 140.231,333.560 132.800,329.689 L131.086,328.795 L119.897,348.152 C119.056,349.603 117.489,350.505 115.806,350.505 C114.981,350.505 114.169,350.287 113.458,349.875 C111.207,348.574 110.432,345.684 111.730,343.436 L122.933,324.069 L121.308,323.027 C114.255,318.504 107.603,313.406 101.539,307.875 L100.115,306.576 L84.278,322.383 C83.391,323.270 82.207,323.758 80.945,323.758 C79.687,323.758 78.501,323.265 77.608,322.372 C76.718,321.480 76.230,320.297 76.232,319.038 C76.233,317.779 76.726,316.595 77.618,315.707 L93.452,299.903 L92.146,298.476 C86.640,292.455 81.538,285.803 76.982,278.707 L75.941,277.087 L56.558,288.258 C55.822,288.678 55.030,288.890 54.204,288.890 C52.518,288.890 50.949,287.984 50.110,286.529 C48.813,284.276 49.592,281.387 51.845,280.089 L71.213,268.933 L70.318,267.216 C66.450,259.788 63.223,252.048 60.728,244.209 L60.144,242.373 L38.584,248.130 C38.187,248.236 37.777,248.290 37.368,248.290 C35.240,248.290 33.368,246.851 32.815,244.795 C32.147,242.281 33.648,239.689 36.159,239.017 L57.714,233.266 L57.301,231.379 C55.513,223.236 54.416,214.919 54.039,206.656 L53.952,204.730 L31.630,204.715 C29.034,204.715 26.923,202.597 26.923,199.998 C26.927,197.400 29.042,195.287 31.642,195.287 L53.950,195.302 L54.038,193.373 C54.416,185.088 55.511,176.772 57.293,168.656 L57.706,166.772 L36.146,160.979 C34.932,160.653 33.917,159.873 33.289,158.782 C32.660,157.690 32.493,156.420 32.819,155.206 C33.494,152.701 36.087,151.207 38.592,151.871 L60.127,157.666 L60.712,155.826 C63.206,147.985 66.433,140.242 70.303,132.813 L71.196,131.098 L51.834,119.909 C49.586,118.606 48.814,115.717 50.113,113.467 C50.743,112.374 51.760,111.593 52.978,111.267 C54.194,110.942 55.461,111.111 56.550,111.742 L75.925,122.944 L76.966,121.320 C81.499,114.249 86.596,107.596 92.118,101.544 L93.418,100.119 L77.611,84.298 C75.776,82.457 75.776,79.463 77.606,77.628 C79.452,75.793 82.446,75.794 84.281,77.630 L100.092,93.456 L101.518,92.152 C107.533,86.651 114.185,81.546 121.288,76.979 L122.907,75.938 L111.729,56.559 C111.100,55.469 110.934,54.200 111.260,52.983 C111.587,51.766 112.368,50.749 113.461,50.120 C114.551,49.492 115.819,49.324 117.033,49.651 C118.248,49.977 119.263,50.758 119.893,51.851 L131.062,71.212 L132.778,70.318 C140.207,66.448 147.949,63.221 155.791,60.727 L157.628,60.142 L151.862,38.599 C151.535,37.385 151.701,36.117 152.329,35.028 C152.959,33.938 153.976,33.159 155.199,32.834 C156.410,32.506 157.675,32.671 158.762,33.298 C159.855,33.927 160.637,34.947 160.964,36.167 L166.737,57.714 L168.622,57.300 C176.764,55.514 185.080,54.416 193.339,54.039 L195.266,53.951 L195.273,31.651 C195.273,29.051 197.387,26.937 199.986,26.937 C202.585,26.937 204.700,29.051 204.700,31.650 L204.692,53.951 L206.622,54.039 C214.908,54.417 223.225,55.511 231.344,57.293 L233.228,57.707 L239.007,36.161 C239.681,33.654 242.281,32.164 244.783,32.834 C247.292,33.505 248.788,36.096 248.115,38.607 L242.335,60.128 L244.174,60.713 C252.013,63.206 259.756,66.433 267.187,70.303 L268.903,71.197 L280.079,51.843 C280.709,50.751 281.727,49.970 282.947,49.643 C284.166,49.319 285.432,49.485 286.517,50.112 C287.610,50.744 288.392,51.763 288.718,52.981 C289.044,54.198 288.876,55.467 288.243,56.559 L277.064,75.924 L278.685,76.966 C285.776,81.518 292.430,86.621 298.462,92.131 L299.888,93.434 L315.705,77.617 C317.540,75.782 320.532,75.781 322.368,77.615 C324.204,79.455 324.205,82.446 322.370,84.282 L306.552,100.099 L307.856,101.525 C313.359,107.542 318.462,114.193 323.021,121.293 L324.062,122.914 L343.436,111.735 C345.683,110.434 348.574,111.213 349.880,113.460 C350.509,114.552 350.676,115.823 350.349,117.038 C350.023,118.254 349.241,119.269 348.147,119.899 L328.787,131.077 L329.682,132.793 C333.554,140.211 336.783,147.953 339.279,155.803 L339.864,157.642 L361.395,151.871 C362.613,151.546 363.884,151.715 364.974,152.343 C366.064,152.972 366.842,153.988 367.167,155.209 C367.492,156.425 367.325,157.695 366.694,158.786 C366.064,159.876 365.049,160.654 363.834,160.978 L342.286,166.750 L342.700,168.635 C344.488,176.777 345.585,185.095 345.962,193.358 L346.049,195.286 L368.349,195.286 C370.949,195.286 373.064,197.400 373.064,200.000 C373.064,202.599 370.949,204.713 368.349,204.714 ZM200.000,63.299 C124.623,63.299 63.300,124.623 63.300,200.000 C63.300,275.376 124.623,336.701 200.000,336.701 C275.377,336.701 336.701,275.376 336.701,200.000 C336.701,124.623 275.377,63.299 200.000,63.299 ZM280.808,218.182 C273.193,218.182 266.340,213.309 263.755,206.056 L263.276,204.713 L238.091,204.713 L237.807,206.397 C235.088,222.466 222.466,235.088 206.396,237.807 L204.713,238.091 L204.713,263.268 L206.054,263.748 C213.308,266.340 218.182,273.196 218.182,280.808 C218.182,290.833 210.025,298.990 200.000,298.990 C189.974,298.990 181.818,290.833 181.818,280.808 C181.818,273.194 186.692,266.338 193.945,263.748 L195.287,263.268 L195.287,238.091 L193.603,237.807 C177.534,235.088 164.912,222.466 162.194,206.397 L161.909,204.713 L136.731,204.713 L136.253,206.054 C133.662,213.308 126.806,218.182 119.192,218.182 C109.166,218.182 101.010,210.025 101.010,200.000 C101.010,189.974 109.166,181.818 119.192,181.818 C126.806,181.818 133.662,186.692 136.253,193.946 L136.731,195.286 L161.909,195.286 L162.194,193.603 C164.912,177.534 177.534,164.912 193.603,162.194 L195.287,161.909 L195.287,136.723 L193.944,136.245 C186.691,133.661 181.818,126.808 181.818,119.192 C181.818,109.166 189.974,101.010 200.000,101.010 C210.025,101.010 218.182,109.166 218.182,119.192 C218.182,126.804 213.308,133.660 206.054,136.253 L204.713,136.731 L204.713,161.909 L206.396,162.194 C222.466,164.912 235.088,177.534 237.807,193.603 L238.091,195.286 L263.276,195.286 L263.755,193.944 C266.339,186.691 273.192,181.818 280.808,181.818 C290.833,181.818 298.990,189.974 298.990,200.000 C298.990,210.025 290.833,218.182 280.808,218.182 ZM119.192,191.246 C114.365,191.246 110.438,195.173 110.438,200.000 C110.438,204.827 114.365,208.753 119.192,208.753 C124.019,208.753 127.946,204.827 127.946,200.000 C127.946,195.173 124.019,191.246 119.192,191.246 ZM191.246,280.808 C191.246,285.635 195.173,289.561 200.000,289.561 C204.826,289.561 208.754,285.635 208.754,280.808 C208.754,275.981 204.826,272.054 200.000,272.054 C195.173,272.054 191.246,275.981 191.246,280.808 ZM208.754,119.192 C208.754,114.365 204.826,110.438 200.000,110.438 C195.173,110.438 191.246,114.365 191.246,119.192 C191.246,124.019 195.173,127.946 200.000,127.946 C204.826,127.946 208.754,124.019 208.754,119.192 ZM200.000,171.044 C184.034,171.044 171.044,184.034 171.044,200.000 C171.044,215.966 184.034,228.955 200.000,228.955 C215.966,228.955 228.956,215.966 228.956,200.000 C228.956,184.034 215.966,171.044 200.000,171.044 ZM280.808,191.246 C275.981,191.246 272.054,195.173 272.054,200.000 C272.054,204.827 275.981,208.753 280.808,208.753 C285.635,208.753 289.562,204.827 289.562,200.000 C289.562,195.173 285.635,191.246 280.808,191.246 Z"/>
</svg>