<svg 
 xmlns="http://www.w3.org/2000/svg"
 xmlns:xlink="http://www.w3.org/1999/xlink"
 width="100px" height="16px">
<defs>
<linearGradient id="PSgrad_0" x1="0%" x2="0%" y1="100%" y2="0%">
  <stop offset="0%" stop-color="rgb(252,74,26)" stop-opacity="1" />
  <stop offset="100%" stop-color="rgb(247,183,51)" stop-opacity="1" />
</linearGradient>

</defs>
<path fill-rule="evenodd"  fill="rgb(241, 147, 55)"
 d="M-0.000,16.000 L-0.000,15.000 L100.000,15.000 L100.000,16.000 L-0.000,16.000 ZM60.000,7.000 L80.000,7.000 L80.000,8.000 L60.000,8.000 L60.000,7.000 ZM52.894,11.002 L49.500,9.325 L46.106,11.002 L46.571,7.083 L44.008,4.201 L47.690,3.455 L49.500,-0.003 L51.310,3.455 L54.991,4.201 L52.429,7.083 L52.894,11.002 ZM53.076,4.865 L50.683,4.381 L49.507,2.133 L48.330,4.381 L45.937,4.865 L47.603,6.739 L47.301,9.286 L49.507,8.196 L51.713,9.286 L51.411,6.739 L53.076,4.865 ZM20.000,7.000 L40.000,7.000 L40.000,8.000 L20.000,8.000 L20.000,7.000 Z"/>
<path fill="url(#PSgrad_0)"
 d="M-0.000,16.000 L-0.000,15.000 L100.000,15.000 L100.000,16.000 L-0.000,16.000 ZM60.000,7.000 L80.000,7.000 L80.000,8.000 L60.000,8.000 L60.000,7.000 ZM52.894,11.002 L49.500,9.325 L46.106,11.002 L46.571,7.083 L44.008,4.201 L47.690,3.455 L49.500,-0.003 L51.310,3.455 L54.991,4.201 L52.429,7.083 L52.894,11.002 ZM53.076,4.865 L50.683,4.381 L49.507,2.133 L48.330,4.381 L45.937,4.865 L47.603,6.739 L47.301,9.286 L49.507,8.196 L51.713,9.286 L51.411,6.739 L53.076,4.865 ZM20.000,7.000 L40.000,7.000 L40.000,8.000 L20.000,8.000 L20.000,7.000 Z"/>
</svg>